<?xml version="1.0" encoding="UTF-8"?>
<svg version="1.1" viewBox="0 0 1600 1600" width="1280" height="1280" xmlns="http://www.w3.org/2000/svg">
<path transform="translate(0)" d="m0 0h1600v1600h-1600v-1600z" fill="#FDFDFD"/>
<path transform="translate(843 457)" d="m0 0c19.7 0.00686 39.3 1.96 58.6 5.56 1.5 0.264 1.5 0.264 3.03 0.534 9.2 1.86 16.5 6.05 21.8 13.9 5.05 8.79 8.01 18.9 11.3 28.4 0.442 1.29 0.885 2.59 1.33 3.88 2.3 6.72 4.56 13.4 6.8 20.2 0.7 2.1 1.4 4.2 2.1 6.3 0.635 1.91 1.27 3.82 1.9 5.73 1.18 3.56 2.37 7.11 3.57 10.7 0.559 1.71 0.559 1.71 1.13 3.45 0.362 1.07 0.724 2.13 1.1 3.23 0.318 0.954 0.636 1.91 0.963 2.89 2.28 4.91 5.64 7.03 10.4 9.22 1.03 0.477 2.06 0.954 3.12 1.45 1.09 0.5 2.18 1 3.31 1.52 14.8 6.93 28.5 14.9 41.9 24.1 0.557 0.375 1.11 0.749 1.69 1.14 1.68 1.19 1.68 1.19 3.38 2.59 3.72 2.99 6.26 4.22 11.2 3.88 3.55-0.481 7.01-1.16 10.5-1.97 1.7-0.374 3.4-0.746 5.1-1.12 0.893-0.197 1.79-0.394 2.71-0.597 7.95-1.72 15.9-3.27 23.9-4.84 2.8-0.551 5.6-1.11 8.41-1.66 4.12-0.818 8.23-1.62 12.4-2.42 1.63-0.318 3.25-0.639 4.88-0.963 24.2-4.83 24.2-4.83 35.3 1.28 5.19 3.59 9 8.11 12.9 13 0.811 1.01 1.62 2.03 2.46 3.07 2.13 2.7 4.2 5.45 6.26 8.2 1.29 1.73 2.6 3.46 3.9 5.18 7.64 10.2 14.6 20.8 21.4 31.5 0.606 0.95 0.606 0.95 1.23 1.92 43.7 68.7 43.7 68.7 39.3 99.6-2.49 9.11-10.1 16.2-16.4 23-3.02 3.23-5.87 6.53-8.64 9.98-3.2 3.98-6.53 7.77-10 11.5-4.3 4.63-8.34 9.41-12.3 14.3-2.91 3.53-5.96 6.91-9.05 10.3-0.706 0.788-1.41 1.58-2.14 2.39-0.854 0.878-1.71 1.76-2.59 2.66-2.86 3.47-3.17 6.77-3.17 11.2-0.02 0.76-0.04 1.52-0.0606 2.3-0.0575 2.5-0.0772 5-0.0915 7.51-0.0212 1.75-0.0428 3.51-0.0648 5.26-0.0389 3.68-0.0562 7.35-0.0614 11-0.0106 4.68-0.0994 9.35-0.208 14-0.0711 3.63-0.0871 7.25-0.0886 10.9-0.00951 1.72-0.0385 3.45-0.0884 5.17-0.224 8.44-0.169 15.1 5.58 21.6 2.04 2.09 4.17 4.06 6.36 5.99 2.29 2.13 4.18 4.54 6.1 7 3.84 4.78 7.9 9.32 12 13.8 3.17 3.46 6.27 6.98 9.33 10.5 0.821 0.954 1.64 1.91 2.49 2.89 4.94 5.77 9.78 11.6 14.5 17.5 0.457 0.567 0.913 1.13 1.38 1.72 4.25 5.39 6.92 10.1 7.49 17 0.101 1.01 0.201 2.03 0.305 3.07-0.473 10-4.31 19.3-8.12 28.5-0.481 1.17-0.962 2.33-1.46 3.53-10.3 24.6-22 49.1-37.4 71-1.3 1.87-2.56 3.75-3.82 5.64-8.8 13.1-18.3 25.8-28.9 37.5-0.459 0.517-0.919 1.03-1.39 1.57-4.95 5.33-10.9 9.13-18.3 9.5-16.1 0.383-31.8-3.59-47.4-6.87-6.39-1.34-12.8-2.64-19.2-3.94-2.2-0.452-4.41-0.914-6.61-1.38-13.5-3.45-13.5-3.45-26.9-2.04-0.793 0.603-1.59 1.21-2.4 1.83-0.901 0.651-1.8 1.3-2.73 1.97l-2.64 2c-1.61 1.09-3.24 2.16-4.87 3.22-1.21 0.799-1.21 0.799-2.45 1.61-13.1 8.55-26.8 15.7-40.8 22.7-0.951 0.493-1.9 0.987-2.88 1.5-1.33 0.644-1.33 0.644-2.69 1.3-3.08 2.27-3.89 4.42-5.31 7.96-0.251 0.619-0.501 1.24-0.76 1.88-2.45 6.16-4.56 12.4-6.59 18.7-1.15 3.56-2.34 7.1-3.51 10.7-1.63 4.91-3.25 9.82-4.86 14.7-1.48 4.52-2.99 9.02-4.51 13.5-0.586 1.74-1.16 3.49-1.73 5.24-3.78 11.7-7.68 22.2-19.1 28.5-4 1.69-8.09 2.73-12.3 3.57-0.802 0.163-1.6 0.326-2.43 0.493-20.1 3.88-40.7 5.47-61.2 5.57-0.785 0.00475-1.57 0.00951-2.38 0.0144-5.5-0.0166-5.5-0.0166-6.62-1.14-0.103-3.11-0.139-6.19-0.134-9.29-0.00227-0.988-0.00453-1.98-0.00687-2.99-0.00637-3.34-0.00551-6.67-0.00469-10-0.00299-2.38-0.00639-4.76-0.0102-7.14-0.00794-5.81-0.0111-11.6-0.0116-17.4-4.74e-4 -4.72-0.00253-9.44-0.0057-14.2-0.00881-13.4-0.0134-26.8-0.0127-40.1 4e-5 -0.722 7.99e-5 -1.44 1.21e-4 -2.19 4.09e-5 -0.723 8.18e-5 -1.45 1.24e-4 -2.19 4.07e-4 -11.7-0.00917-23.4-0.0233-35.1-0.0143-12-0.0213-24-0.0204-36 3.33e-4 -6.75-0.00244-13.5-0.0132-20.3-0.00964-6.35-0.00979-12.7-0.00248-19 0.00105-2.34-0.00135-4.67-0.00736-7.01-0.00765-3.18-0.00312-6.35 0.00463-9.53-0.00772-1.4-0.00772-1.4-0.0156-2.83 0.0046-0.846 0.0092-1.69 0.0139-2.56-2.17e-4 -0.734-4.35e-4 -1.47-6.59e-4 -2.22 0.25-1.8 0.25-1.8 2.25-3.8 2.34-0.439 2.34-0.439 5.29-0.711 1.08-0.108 2.16-0.216 3.27-0.327 1.16-0.111 2.31-0.222 3.51-0.337 10.6-1.13 20.7-2.64 30.9-5.62 0.71-0.205 1.42-0.409 2.15-0.62 16-4.7 31.6-11.1 44.8-21.4 1.81-1.29 3.62-2.59 5.44-3.88 36-26.4 60.2-65 67.6-109 0.789-5.53 1.18-10.9 1.24-16.5 0.0147-1.19 0.0147-1.19 0.0297-2.4 0.17-17.4 0.146-34.2-4.27-51.1-0.209-0.812-0.418-1.62-0.633-2.46-5.05-18.9-13.4-36.4-24.4-52.5-0.656-0.982-1.31-1.96-1.99-2.98-4.23-6.08-9.02-11.5-14.2-16.8-3.86-4.04-3.86-4.04-3.86-6.24-0.826-0.34-0.826-0.34-1.67-0.688-3.02-1.7-5.16-3.89-7.64-6.31-27.6-25.9-66.7-39.1-104-40.8-2.75-0.211-2.75-0.211-3.75-1.21-0.881-5.59-1.14-11-1.13-16.7-0.00156-0.837-0.00312-1.67-0.00473-2.54-0.00397-2.79-8.37e-4 -5.57 0.00232-8.36-0.00136-2.01-0.00314-4.01-0.00531-6.02-0.00455-5.44-0.00279-10.9 3.79e-4 -16.3 0.00254-5.72 1.81e-4 -11.4-0.00139-17.2-0.00182-9.63 5.76e-4 -19.3 0.00534-28.9 0.00541-11.1 0.0037-22.1-0.00183-33.2-0.00457-9.54-0.00516-19.1-0.00256-28.6 0.00154-5.68 0.00181-11.4-0.00154-17-0.0206-40.6-0.0206-40.6 0.582-57.6 0.0387-1.1 0.0774-2.19 0.117-3.32 0.425-9.95 3.16-8.47 12.6-8.5z" fill="#000100"/>
<path transform="translate(790,450)" d="m0 0c5.24 4.9 8.06 10.9 8.38 18.1-0.672 7.05-3.46 12-8.38 16.9-5.13 2.27-9.99 2.32-15.5 2.44-54.7 1.91-104 15.1-153 39.3-1.1 0.543-2.19 1.09-3.32 1.65-5.85 2.94-11.5 6-16.9 9.6-0.793 0.519-1.59 1.04-2.4 1.57-20.9 13.7-40 28.5-58.3 45.6-0.927 0.861-0.927 0.861-1.87 1.74-5.94 5.54-11.8 11.1-16.8 17.4-2.96 3.68-5.99 7.22-9.19 10.7-3.72 4.09-7.03 8.36-10.2 12.9-1.31 1.85-2.63 3.69-3.98 5.5-4.94 6.66-9.38 13.5-13.6 20.6-0.65 1.09-1.3 2.18-1.97 3.31-30.5 51.6-47.9 109-47.8 169 0.00534 3.11 3.71e-5 6.23-0.00635 9.34-0.00413 11.2 0.218 22.3 1.14 33.5 0.073 0.893 0.146 1.79 0.221 2.71 0.193 2.16 0.415 4.32 0.654 6.48 0.0657 0.677 0.131 1.35 0.199 2.05 0.608 5.58 1.83 10.9 3.13 16.4 0.755 3.17 1.46 6.35 2.16 9.54 4.31 19.5 9.72 38.4 17.6 56.8 0.29 0.679 0.579 1.36 0.877 2.06 6.54 15.3 13.4 30.8 22.6 44.7 1.39 2.13 2.58 4.28 3.75 6.54 2.81 5.25 6.47 9.9 10.1 14.6 3.66 4.82 3.66 4.82 3.66 8.14h2c1.37 1.51 2.67 3.09 3.94 4.69 2.64 3.3 5.28 6.59 8.03 9.8 0.494 0.575 0.988 1.15 1.5 1.74 0.965 1.12 1.93 2.24 2.9 3.35 2.29 2.67 4.26 5.16 5.63 8.42h2v2h2v2h2v2h2v2h2v2h2v2h2v2h2v2h2v2h2v2h2v2h2v2h2v2h2v2h2v2h2v2h2c1.89 2.21 3.68 4.44 5.44 6.75 0.49 0.634 0.981 1.27 1.49 1.92 0.948 1.23 1.89 2.46 2.83 3.69 1.02 1.33 2.05 2.65 3.09 3.96 1.15 1.67 1.15 1.67 1.15 3.67h2c2.99 3.77 5.44 7.93 8 12 0.686 1.09 0.686 1.09 1.39 2.19 5.94 9.46 11.4 19 16.2 29.1 0.414 0.865 0.827 1.73 1.25 2.62 2.15 4.63 3.8 9.12 5.12 14.1 0.661 1.68 1.35 3.35 2.06 5 1.66 4.03 2.37 7.67 2.94 12 0.46 0.982 0.92 1.96 1.39 2.98 2.22 5.02 2.89 10.3 3.73 15.7 0.169 1.01 0.338 2.03 0.512 3.07 1.83 11.3 2.49 22.4 2.5 33.9 0.0183 2.38 0.0379 4.75 0.0586 7.13 0.029 3.69 0.0508 7.38 0.0513 11.1 0.00335 3.6 0.0379 7.2 0.0776 10.8-0.0106 1.64-0.0106 1.64-0.0214 3.31 0.13 8.25 1.95 15.1 7.7 21.2 8.85 8.22 17.4 9 29 9.06 1.64 0.0148 1.64 0.0148 3.31 0.03 3.6 0.0315 7.21 0.0563 10.8 0.0811 2.5 0.0206 5 0.0416 7.51 0.063 5.91 0.0495 11.8 0.0948 17.7 0.138 7.39 0.0543 14.8 0.115 22.2 0.176 13.2 0.107 26.3 0.209 39.5 0.307 0.0556-44 0.0691-88 0.0263-132-0.00501-5.2-0.00968-10.4-0.0141-15.6-8.92e-4 -1.03-0.00178-2.07-0.0027-3.14-0.0136-16.8 9.37e-4 -33.5 0.0259-50.3 0.025-17.2 0.0197-34.4-0.0137-51.6-0.0196-10.6-0.0157-21.2 0.0185-31.8 0.0212-7.28 0.0129-14.6-0.0184-21.8-0.0172-4.2-0.0215-8.39 0.00918-12.6 0.0279-3.85 0.0185-7.69-0.0198-11.5-0.0108-2.04 0.0175-4.08 0.0476-6.12-0.148-9.37-2.84-14.6-9.06-21.5-0.48-0.565-0.961-1.13-1.46-1.71-1.14-1.32-2.34-2.59-3.54-3.85-3.85-4.15-7.44-8.4-10.9-12.8-2.7-3.41-5.49-6.74-8.28-10.1-2.72-3.26-5.41-6.54-8.09-9.84-3.66-4.5-7.44-8.88-11.2-13.2-4.28-4.9-8.44-9.86-12.5-15-2.32-2.92-4.7-5.79-7.09-8.66-1.25-1.5-1.25-1.5-2.53-3.04-1.96-2.33-3.96-4.62-5.97-6.9-2.38-2.88-2.38-2.88-2.38-4.88-11.4 4.27-22.8 8.68-34.1 13.3-9.68 3.97-19.4 7.87-29.1 11.7-1.16 0.457-2.33 0.913-3.53 1.38-25 9.77-25 9.77-34.6 6.93-5.67-2.6-9.03-6.25-12-11.8-1.89-7.06-0.238-12.1 3.32-18.3 8.62-12.1 31.2-16.7 44.4-21.8 5.61-2.19 11.2-4.42 16.8-6.66 1.03-0.413 2.07-0.826 3.13-1.25 5.93-2.38 11.8-4.8 17.7-7.25 7.91-3.28 15.9-6.29 23.9-9.25 1.07-0.417 1.07-0.417 2.15-0.842 6.75-2.63 6.75-2.63 10.8-1.16 1.15 0.412 2.31 0.825 3.5 1.25 9.72 4.86 17.5 16.2 24 24.8 1.26 1.66 2.58 3.28 3.91 4.88 1.56 2.06 1.56 2.06 1.56 4.06h2c1.51 1.68 1.51 1.68 3.12 3.88 0.539 0.719 1.08 1.44 1.63 2.18 1.24 1.95 1.24 1.95 1.24 3.95h2v2h2c1.51 1.68 1.51 1.68 3.12 3.88 0.539 0.719 1.08 1.44 1.63 2.18 1.24 1.95 1.24 1.95 1.24 3.95h2v2h2c1.41 1.62 1.41 1.62 3.06 3.88 3.4 4.53 7.12 8.66 11 12.8 1.94 2.39 2.95 4.46 3.92 7.36h2c1.46 1.59 2.84 3.25 4.19 4.94 0.797 0.998 1.59 2 2.41 3.02 0.791 1 1.58 2.01 2.4 3.04l2.15 2.66c4.85 6.08 4.85 6.08 4.85 8.34h2v2h2c5 5.48 5 5.48 5 8h2c1.55 1.65 1.55 1.65 3.31 3.94 0.574 0.731 1.15 1.46 1.74 2.21 0.643 0.94 1.29 1.88 1.95 2.85 0.416 0.571 0.833 1.14 1.26 1.73 4.58 7.04 4.44 13.8 4.38 22 0.00632 1.49 0.0148 2.98 0.0253 4.47 0.0224 4.07 0.014 8.15 3.14e-4 12.2-0.00928 4.4 0.0103 8.8 0.0263 13.2 0.0238 7.62 0.0295 15.2 0.0227 22.8-0.00981 11 0.00795 22 0.0324 33 0.0389 17.9 0.0556 35.7 0.0582 53.6 0.00265 17.4 0.0158 34.7 0.043 52.1 0.00167 1.07 0.00335 2.14 0.00507 3.24 0.00846 5.37 0.0171 10.7 0.0259 16.1 0.0724 44.5 0.109 89 0.122 134 1.17 0.00809 2.34 0.0162 3.54 0.0245 11 0.0777 22.1 0.165 33.1 0.263 5.67 0.0498 11.3 0.0962 17 0.134 5.48 0.037 11 0.0834 16.4 0.136 2.09 0.0185 4.17 0.0336 6.26 0.0453 2.93 0.017 5.86 0.0461 8.79 0.0778 0.852 0.00216 1.7 0.00432 2.58 0.00655 9 0.124 17 1.51 24.8 6.19 0.606 0.339 1.21 0.678 1.84 1.03 3.43 2 5.05 3.53 6.66 7.1 0.629 0.308 1.26 0.616 1.91 0.934 6.43 3.27 10.9 14.4 13.1 21.1 0.628 3.01 0.881 5.93 1 9 0.04 0.804 0.0799 1.61 0.121 2.44 0.286 10.8-2.11 20.6-8.12 29.6 0.305 4.6 1.82 7.81 4 11.8 5.75 12.2 5.03 25.5 1 38.2-4.11 11.3-12.5 20.4-23 26-8.7 4-8.7 4-12 4-0.713 6.14-1.1 12.2-1.24 18.4-0.492 19.5-5.37 34.4-19.9 48.2-4.3 3.58-8.83 6.1-13.9 8.41-1.01 0.489-1.01 0.489-2.04 0.988-5.56 2.58-11 3.13-17 3.16-1.19 0.00716-2.39 0.0143-3.61 0.0217-1.3 0.00269-2.59 0.00538-3.92 0.00815-1.39 0.00627-2.78 0.0129-4.17 0.0199-4.55 0.021-9.09 0.0314-13.6 0.0414-1.57 0.00405-3.14 0.00817-4.71 0.0124-7.39 0.019-14.8 0.0333-22.2 0.0416-8.5 0.00976-17 0.036-25.5 0.0765-6.59 0.0303-13.2 0.045-19.8 0.0483-3.93 0.00234-7.85 0.0111-11.8 0.0365-3.7 0.0235-7.4 0.0274-11.1 0.0172-1.98-7.22e-4 -3.97 0.0182-5.95 0.0381-12.7-0.0726-23.2-3.34-33.6-10.5-1.12-0.746-1.12-0.746-2.25-1.51-4.3-3.03-7-5.92-9.75-10.5-0.468-0.45-0.936-0.9-1.42-1.36-1.97-2.04-3.2-4.16-4.58-6.64-0.743-1.3-0.743-1.3-1.5-2.62-4.56-10.3-5.17-20.5-5.69-31.6-0.0816-1.54-0.164-3.08-0.248-4.62-0.201-3.73-0.387-7.46-0.564-11.2-1.09-0.138-2.19-0.276-3.31-0.418-9.93-1.57-18.5-8.97-24.7-16.6-7.98-11.2-11.5-23.2-10-37 1.33-5.67 3.2-10.9 6.25-15.9 2.03-3.63 2.47-5.04 1.75-9.12-1.14-2.51-2.41-4.94-3.69-7.38-4.49-8.96-4.98-17.7-4.31-27.6 0.33-0.33 0.66-0.66 1-1 0.7-2.84 0.7-2.84 0-6-2.47-1.9-4.66-3.29-7.38-4.75-16.6-9.65-26.5-23.8-31.6-42.2-1.2-6.59-1.28-13.2-1.46-19.9-0.0786-2.56-0.157-5.11-0.236-7.67-0.119-4-0.236-8-0.348-12-0.111-3.88-0.231-7.76-0.353-11.6-0.0303-1.17-0.0606-2.35-0.0918-3.56-0.925-28.7-9.03-55.1-22.5-80.2-0.497-0.928-0.497-0.928-1-1.88-7.82-14.4-17.6-27.4-28.7-39.5-1.25-1.59-1.25-1.59-1.25-3.59h-2c-1.27-1.29-1.27-1.29-2.81-3.19-3.27-3.85-6.73-7.44-10.3-11-0.831-0.826-0.831-0.826-1.68-1.67-1.73-1.72-3.46-3.43-5.2-5.14-14.1-13.9-14.1-13.9-20-21-1.07-1.25-1.07-1.25-2.16-2.52-58.9-71-90.7-162-88.8-254 0.0189-1.18 0.0189-1.18 0.0381-2.38 0.706-36.6 7.05-74.1 19.8-108 1.08-3.01 1.96-6.01 2.82-9.09 2.84-9.43 7.04-18.3 11.1-27.3 1.07-2.38 2.12-4.77 3.17-7.17 9.09-20.4 21.4-39.3 34.1-57.6 1.09-1.58 1.09-1.58 2.2-3.19 7.89-11.1 16.7-21.7 25.8-31.8 0.634-0.716 1.27-1.43 1.92-2.17 5.63-6.33 11.5-12.4 17.5-18.4 0.869-0.881 1.74-1.76 2.63-2.67 6.02-6.03 12.3-11.5 19-16.8 1.75-1.46 3.5-2.91 5.25-4.38 21.9-17.9 46-32.6 71-45.7 1.02-0.536 2.05-1.07 3.1-1.62 5.36-2.76 10.7-5.25 16.4-7.43 2.1-0.813 4.18-1.67 6.25-2.56 24.2-10.3 49.3-17 75-22.3 0.88-0.183 1.76-0.365 2.67-0.553 61-12.5 61-12.5 77.3-2.45z" fill="#000100"/>
<path transform="translate(705 1473)" d="m0 0c1.13 9.22e-4 2.25 0.00184 3.42 0.00279 1.29-0.00137 2.58-0.00275 3.91-0.00417 1.44 0.00354 2.88 0.00717 4.32 0.0109 1.51 2.82e-4 3.02 1.24e-4 4.52-4.43e-4 4.11-2.88e-4 8.21 0.00561 12.3 0.0126 4.29 0.00623 8.57 0.00684 12.9 0.00803 8.12 0.00311 16.2 0.0113 24.4 0.0213 9.24 0.0112 18.5 0.0167 27.7 0.0217 19 0.0105 38 0.0281 57.1 0.0503 1.88 4.35 2.32 8.05 2.25 12.7-0.00967 0.712-0.0193 1.42-0.0293 2.16-0.221 9.7-1 14.7-8.15 21.6-3.58 2.64-7.02 2.66-11.4 2.66-1.07 0.00426-2.15 0.00853-3.25 0.0129-1.17-4.53e-4 -2.35-9.06e-4 -3.55-0.00137-1.86 0.00504-1.86 0.00504-3.76 0.0102-3.4 0.00787-6.79 0.0112-10.2 0.0118-2.12 7.11e-4 -4.25 0.00285-6.37 0.0055-7.41 0.00925-14.8 0.0133-22.2 0.0125-6.9-6.01e-4 -13.8 0.00995-20.7 0.0257-5.93 0.0131-11.9 0.0184-17.8 0.0178-3.54-2.55e-4 -7.08 0.00258-10.6 0.0132-3.95 0.0115-7.9 0.00693-11.8 8.95e-4 -1.17 0.00562-2.34 0.0112-3.54 0.017-12.4-0.0484-12.4-0.0484-17.5-4.76-0.763-0.825-1.53-1.65-2.31-2.5-0.99-0.66-1.98-1.32-3-2-2.39-4.28-2.3-8.6-2.25-13.4-0.00773-0.73-0.0155-1.46-0.0234-2.21 0.0509-14.3 0.0509-14.3 5.79-14.5z" fill="#FDFDFD"/>
<path transform="translate(698 1354)" d="m0 0c2.02-3e-3 4.04-0.0064 6.05-0.0102 5.46-0.0088 10.9-0.0112 16.4-0.0118 3.41-7.12e-4 6.83-0.00285 10.2-0.0055 11.9-0.00924 23.8-0.0133 35.7-0.0125 11.1 6.01e-4 22.2-0.00997 33.3-0.0257 9.54-0.0131 19.1-0.0184 28.6-0.0178 5.69 2.55e-4 11.4-0.00259 17.1-0.0132 5.35-0.00969 10.7-0.00976 16-0.00248 1.96 0.00105 3.92-0.00131 5.88-0.00736 2.68-0.00773 5.36-0.00307 8.04 0.00463 0.771-0.00514 1.54-0.0103 2.34-0.0156 5.1 0.0322 9.52 0.671 14.4 2.26 2.03 2.17 3.19 4.14 4 7-0.144 4.31-0.602 6.4-3 10-3.92 1.31-7.65 1.15-11.7 1.15-0.904 0.00368-1.81 0.00735-2.74 0.0111-3.04 0.011-6.08 0.0149-9.13 0.0187-2.18 0.00626-4.35 0.0129-6.53 0.0199-5.92 0.0174-11.8 0.028-17.8 0.0362-3.7 0.00515-7.4 0.0112-11.1 0.0175-11.6 0.0191-23.1 0.0333-34.7 0.0416-13.4 0.00978-26.7 0.0361-40.1 0.0765-10.3 0.0301-20.6 0.045-31 0.0483-6.17 0.00235-12.3 0.0113-18.5 0.0365-5.8 0.0232-11.6 0.0275-17.4 0.0172-2.13-4.96e-4 -4.26 0.00585-6.39 0.0196-2.91 0.0177-5.81 0.0106-8.72-0.00253-1.26 0.0165-1.26 0.0165-2.55 0.0332-5.67-0.062-9.07-1.18-13.7-4.52-1.19-3.3-1.17-5.22-0.438-8.62 2.04-3.37 3.9-4.61 7.44-6.38 9.62-2.02 20.1-1.15 29.9-1.15z" fill="#FDFDFD"/>
<path transform="translate(678 1414)" d="m0 0c0.903-0.00524 1.81-0.0105 2.74-0.0159 3.03-0.015 6.05-0.0157 9.08-0.0164 2.17-0.00762 4.34-0.016 6.51-0.0252 5.89-0.022 11.8-0.0307 17.7-0.0358 3.68-0.00364 7.36-0.00988 11-0.017 12.8-0.0245 25.7-0.0375 38.5-0.0411 12-0.00364 23.9-0.0336 35.9-0.0754 10.3-0.0347 20.6-0.0501 30.8-0.0508 6.14-7.94e-4 12.3-0.0096 18.4-0.038 5.77-0.0261 11.5-0.0284 17.3-0.0123 2.12 0.00182 4.24-0.00493 6.36-0.0208 2.89-0.0203 5.78-0.00998 8.67 0.00821 0.842-0.0132 1.68-0.0264 2.55-0.04 4.33 0.0623 5.91 0.257 9.4 3.07 3.14 4.05 3.53 6.43 3 11.6-1.97 2.71-3.56 4.66-6.93 5.46-2.39 0.186-4.74 0.204-7.14 0.171-0.915 0.00709-1.83 0.0142-2.77 0.0215-3.07 0.0176-6.13-5.39e-4 -9.2-0.0186-2.2 0.00514-4.4 0.0124-6.59 0.0217-5.97 0.0185-11.9 0.00556-17.9-0.0141-6.25-0.0164-12.5-0.00758-18.7-0.00248-10.5 0.00452-21-0.0113-31.5-0.0393-10.8-0.0288-21.6-0.0359-32.4-0.0205-13 0.0186-26 0.0168-39-0.00221-4.97-0.00687-9.93-0.00583-14.9 0.00154-5.85 0.00766-11.7-0.00445-17.5-0.0318-2.15-0.00689-4.29-0.00698-6.44 2.16e-4 -2.93 0.00868-5.86-0.00724-8.79-0.0294-1.28 0.0124-1.28 0.0124-2.58 0.025-5.3-0.0742-8.47-0.921-12.6-4.54-1.45-4.34-1.4-6.19 0.625-10.3 4.65-5.26 9.76-4.98 16.3-4.96z" fill="#FDFDFD"/>
</svg>
